<svg xmlns="http://www.w3.org/2000/svg" viewBox="0 -186 1200 932" enable-background="new 0 -186 1200 932"><g opacity=".3"><path fill="#E1E2E3" d="M253 200.3c-31.6 0-64.1-22.9-96.7-67.9-24-33.2-39.2-66.9-39.4-67.2l-.6-1.3.6-1.3c.2-.3 15.3-34 39.4-67.2 32.6-45.1 65.2-67.9 96.7-67.9s64.1 22.8 96.7 67.9c24 33.2 39.2 66.9 39.4 67.2l.6 1.3-.6 1.3c-.2.3-15.3 34-39.4 67.2-32.6 45.1-65.1 67.9-96.7 67.9zm-129.9-136.3c6.4 13.5 62.9 130.2 129.9 130.2s123.6-116.7 129.9-130.2c-6.3-13.5-62.9-130.2-129.9-130.2s-123.5 116.7-129.9 130.2zM253 200.3c-15 0-29.3-22.5-43.8-68.8-10.4-33.1-17-66.6-17-67l-.1-.6.1-.6c2.7-13.9 27.3-135.8 60.8-135.8 15 0 29.3 22.5 43.8 68.8 10.4 33.1 17 66.6 17 67l.2.7-.1.6c-2.7 13.9-27.4 135.7-60.9 135.7zm-54.7-136.3c.9 4.6 7.2 35.4 16.7 65.8 17.6 56.1 31.3 64.4 37.9 64.4 6.6 0 20.3-8.4 37.9-64.5 9.5-30.4 15.8-61.1 16.7-65.7-.9-4.6-7.2-35.4-16.7-65.8-17.6-56.1-31.3-64.4-37.9-64.4-6.6 0-20.3 8.4-37.9 64.4-9.5 30.4-15.7 61.2-16.7 65.8z"/><circle fill="#E1E2E3" cx="253" cy="197.3" r="13.9"/><path fill="#7FC16D" d="M165.9 94.8c19.4 0 36 11.8 43.2 28.5 7.2-16.8 23.8-28.5 43.2-28.5s36 11.8 43.2 28.5c7.2-16.8 23.8-28.5 43.2-28.5 19.1 0 35.5 11.4 42.8 27.7 15.5-23.9 24.5-52.4 24.5-83 0-84.5-68.5-153-153-153s-153 68.5-153 153c0 30 8.7 58 23.6 81.6 7.7-15.6 23.7-26.3 42.3-26.3z"/><path fill="#344A60" d="M323.9 310.9h-141.7c-5.7 0-10.3-4.6-10.3-10.3v-84.4h162.3v84.4c-.1 5.7-4.7 10.3-10.3 10.3z"/><path fill="#E1E2E3" d="M334.1 216.2h-162.2v-13.4c0-5.7 4.6-10.3 10.3-10.3h141.7c5.7 0 10.3 4.6 10.3 10.3v13.4z"/><circle fill="#EF5F3A" cx="187.2" cy="206.2" r="4.5"/><circle fill="#E7C456" cx="201.3" cy="206.2" r="4.5"/><circle fill="#7FC16D" cx="215.4" cy="206.2" r="4.5"/><path fill="#EF5F3A" d="M183.7 227h53v16.4h-53z"/><path fill="#9A9792" d="M245.3 227h19.5v16.4h-19.5zM183.7 253.8h107.6v16.4h-107.6z"/><path fill="#7FC16D" d="M183.7 280.5h26.5v16.4h-26.5z"/><path fill="#9A9792" d="M220.4 280.5h53v16.4h-53z"/></g><g opacity=".5"><path fill="#E1E2E3" d="M893.7 392.4c-42.6 0-86.5-30.8-130.4-91.6-32.4-44.8-52.9-90.1-53.1-90.6l-.8-1.7.8-1.7c.2-.5 20.7-45.8 53.1-90.6 44-60.8 87.9-91.6 130.4-91.6 42.6 0 86.5 30.8 130.4 91.6 32.4 44.8 52.9 90.1 53.1 90.6l.8 1.7-.8 1.7c-.2.5-20.7 45.8-53.1 90.6-44 60.8-87.9 91.6-130.4 91.6zm-175.2-183.9c8.5 18.2 84.8 175.6 175.1 175.6 90.4 0 166.6-157.4 175.1-175.6-8.5-18.2-84.8-175.6-175.1-175.6s-166.6 157.4-175.1 175.6zM893.7 392.4c-20.2 0-39.5-30.3-59.1-92.8-14-44.6-22.9-89.9-23-90.3l-.2-.8.2-.8c.1-.5 8.9-45.7 23-90.3 19.6-62.4 38.9-92.8 59.1-92.8s39.5 30.3 59.1 92.8c14 44.6 22.9 89.9 23 90.3l.2.8-.2.8c-.1.5-8.9 45.7-23 90.3-19.6 62.5-39 92.8-59.1 92.8zm-73.8-183.9c1.2 6.2 9.7 47.7 22.6 88.7 23.8 75.6 42.2 86.9 51.1 86.9s27.4-11.3 51.1-86.9c12.9-41 21.3-82.5 22.6-88.7-1.2-6.2-9.7-47.7-22.6-88.7-23.7-75.6-42.2-86.9-51.1-86.9s-27.4 11.3-51.1 86.9c-12.8 41-21.3 82.5-22.6 88.7z"/><circle fill="#E1E2E3" cx="893.7" cy="388.2" r="18.7"/><path fill="#EF5F3A" d="M776.1 250c26.2 0 48.6 15.9 58.3 38.5 9.7-22.6 32.1-38.5 58.3-38.5 26.2 0 48.6 15.9 58.3 38.5 9.7-22.6 32.1-38.5 58.3-38.5 25.7 0 47.9 15.4 57.8 37.4 20.9-32.2 33-70.7 33-111.9 0-113.9-92.4-206.3-206.3-206.3s-206.3 92.4-206.3 206.3c0 40.5 11.7 78.2 31.8 110.1 10.2-21.1 31.8-35.6 56.8-35.6z"/><path fill="#344A60" d="M989.2 541.4h-191c-7.7 0-13.9-6.2-13.9-13.9v-113.8h218.8v113.8c0 7.7-6.2 13.9-13.9 13.9z"/><path fill="#E1E2E3" d="M1003.1 413.7h-218.8v-18.1c0-7.7 6.2-13.9 13.9-13.9h191c7.7 0 13.9 6.2 13.9 13.9v18.1z"/><circle fill="#EF5F3A" cx="805" cy="400.3" r="6"/><circle fill="#E7C456" cx="824" cy="400.3" r="6"/><circle fill="#7FC16D" cx="842.9" cy="400.3" r="6"/><path fill="#EF5F3A" d="M800.2 428.4h71.4v22.1h-71.4z"/><path fill="#9A9792" d="M883.2 428.4h26.3v22.1h-26.3zM800.2 464.5h145.1v22.1h-145.1z"/><path fill="#7FC16D" d="M800.2 500.5h35.7v22.1h-35.7z"/><path fill="#9A9792" d="M849.8 500.5h71.4v22.1h-71.4z"/></g><path fill="#E1E2E3" d="M581.4 472.9c-31.5 0-64-13-96.7-38.6-25.8-20.2-51.8-48.3-77.2-83.5-43.3-59.7-70.5-120.2-70.8-120.8l-1-2.3 1-2.3c.3-.6 27.6-61.1 70.8-120.8 25.5-35.2 51.5-63.3 77.2-83.5 32.7-25.6 65.2-38.6 96.7-38.6s64 13 96.7 38.6c25.8 20.2 51.8 48.3 77.2 83.5 43.2 59.7 70.5 120.2 70.8 120.8l1 2.3-1 2.3c-.3.6-27.6 61.1-70.8 120.8-25.5 35.2-51.5 63.3-77.2 83.5-32.7 25.6-65.3 38.6-96.7 38.6zm-233.6-245.2c11.3 24.3 113 234.1 233.5 234.1s222.2-209.8 233.5-234.1c-11.3-24.2-112.9-234-233.4-234s-222.2 209.8-233.6 234zM581.4 472.9c-26.9 0-52.7-40.5-78.8-123.7-18.7-59.5-30.5-119.8-30.6-120.4l-.2-1.1.2-1.1c.1-.6 11.9-60.9 30.6-120.4 26.1-83.2 51.9-123.6 78.8-123.6s52.6 40.4 78.8 123.7c18.7 59.5 30.5 119.8 30.6 120.4l.2 1.1-.2 1.1c-.1.6-11.9 60.9-30.6 120.4-26.2 83.2-51.9 123.6-78.8 123.6zm-98.3-245.2c1.7 8.3 13 63.6 30.1 118.2 31.7 100.8 56.3 115.9 68.2 115.9 11.9 0 36.5-15.1 68.2-115.9 17.2-54.6 28.5-110 30.1-118.2-1.7-8.3-13-63.6-30.1-118.2-31.7-100.8-56.3-115.8-68.2-115.8-11.9 0-36.5 15.1-68.2 115.9-17.2 54.5-28.5 109.9-30.1 118.1z"/><circle fill="#E1E2E3" cx="581.4" cy="467.4" r="24.9"/><path fill="#5EB2B6" d="M424.7 283.1c34.9 0 64.8 21.1 77.7 51.3 12.9-30.2 42.8-51.3 77.7-51.3 34.9 0 64.8 21.1 77.7 51.3 12.9-30.2 42.8-51.3 77.7-51.3 34.3 0 63.8 20.5 77 49.9 27.8-43 44-94.2 44-149.2 0-151.9-123.1-275-275-275s-275 123.1-275 275c0 54 15.6 104.3 42.4 146.8 13.6-28.2 42.4-47.5 75.8-47.5z"/><path fill="#344A60" d="M708.7 671.7h-254.7c-10.2 0-18.5-8.3-18.5-18.5v-151.8h291.7v151.8c0 10.2-8.3 18.5-18.5 18.5z"/><path fill="#E1E2E3" d="M727.2 501.4h-291.7v-24.1c0-10.2 8.3-18.5 18.5-18.5h254.7c10.2 0 18.5 8.3 18.5 18.5v24.1z"/><circle fill="#EF5F3A" cx="463.1" cy="483.4" r="8"/><circle fill="#E7C456" cx="488.4" cy="483.4" r="8"/><circle fill="#7FC16D" cx="513.7" cy="483.4" r="8"/><path fill="#EF5F3A" d="M456.7 520.9h95.2v29.5h-95.2z"/><path fill="#9A9792" d="M567.4 520.9h35.1v29.5h-35.1zM456.7 569h193.4v29.5h-193.4z"/><path fill="#7FC16D" d="M456.7 617.1h47.6v29.5h-47.6z"/><path fill="#9A9792" d="M522.8 617.1h95.2v29.5h-95.2z"/></svg>